<?xml version="1.0" encoding="utf-8"?>
<!-- Generator: Adobe Illustrator 21.1.0, SVG Export Plug-In . SVG Version: 6.00 Build 0)  -->
<svg version="1.1" id="Layer_1" xmlns="http://www.w3.org/2000/svg" xmlns:xlink="http://www.w3.org/1999/xlink" x="0px" y="0px"
	 viewBox="0 0 500 500" style="enable-background:new 0 0 500 500;" xml:space="preserve">
<style type="text/css">
	.st0{fill:none;stroke:#000000;stroke-width:3;stroke-linecap:round;stroke-linejoin:round;stroke-miterlimit:10;}
	.st1{fill:none;stroke:#000000;stroke-width:6;stroke-linecap:round;stroke-linejoin:round;stroke-miterlimit:10;}
</style>
<line class="st0" x1="250" y1="174.2" x2="262.3" y2="156.8"/>
<line class="st0" x1="250" y1="174.2" x2="237.7" y2="156.8"/>
<line class="st0" x1="227.5" y1="160.4" x2="250" y2="174.2"/>
<line class="st0" x1="272.5" y1="160.4" x2="250" y2="174.2"/>
<g>
	<path d="M250,175c41.2,0,74.7,33.4,74.7,74.7c0,34.5-23.4,63.6-55.3,72.1l-9.1,15.4l-2-13.3c-0.4,0-0.8,0.1-1.2,0.1l-5.9,18.5
		l-5.9-18.3c-0.4,0-0.9-0.1-1.3-0.1l-2,13.1l-8.6-14.7c-33.2-7.6-58-37.3-58-72.8C175.3,208.4,208.8,175,250,175 M250,170
		c-43.9,0-79.7,35.7-79.7,79.7c0,18.2,6.3,35.9,17.7,50c10.8,13.3,25.7,22.9,42.1,27.1l7.5,12.9c0.9,1.6,2.6,2.5,4.3,2.5
		c0.3,0,0.6,0,0.9-0.1c0.9-0.2,1.8-0.6,2.5-1.2l1,3.1c0.7,2.1,2.6,3.5,4.8,3.5s4.1-1.4,4.8-3.5l1-3.1c0.7,0.6,1.5,1.1,2.4,1.2
		c0.3,0.1,0.6,0.1,1,0.1c1.7,0,3.4-0.9,4.3-2.5l8.1-13.7c33.7-10,57-41.1,57-76.4C329.7,205.8,293.9,170,250,170L250,170z"/>
</g>
<polyline class="st1" points="285.2,235.9 250,255.6 250,204.9 "/>
<circle class="st0" cx="250" cy="249.6" r="63.6"/>
<line class="st0" x1="250" y1="154.5" x2="250" y2="186"/>
</svg>
