<?xml version="1.0" encoding="utf-8"?>
<!-- Generator: Adobe Illustrator 21.1.0, SVG Export Plug-In . SVG Version: 6.00 Build 0)  -->
<svg version="1.1" id="Layer_1" xmlns="http://www.w3.org/2000/svg" xmlns:xlink="http://www.w3.org/1999/xlink" x="0px" y="0px"
	 viewBox="0 0 500 500" style="enable-background:new 0 0 500 500;" xml:space="preserve">
<g>
	<path d="M250,71.2c-1.8,0-3.6-0.5-5.2-1.6c-4-2.9-5-8.4-2.1-12.5l28.7-40.5c2.9-4,8.4-5,12.5-2.1c4,2.9,5,8.4,2.1,12.5l-28.7,40.5
		C255.6,69.8,252.8,71.2,250,71.2z"/>
</g>
<g>
	<path d="M250,71.2c-2.8,0-5.6-1.3-7.3-3.8L214,26.9c-2.9-4-1.9-9.6,2.1-12.5c4-2.9,9.6-1.9,12.5,2.1L257.3,57
		c2.9,4,1.9,9.6-2.1,12.5C253.6,70.6,251.8,71.2,250,71.2z"/>
</g>
<g>
	<path d="M250,71.2c-1.6,0-3.2-0.4-4.7-1.3l-52.5-32.2c-4.2-2.6-5.5-8.1-2.9-12.3c2.6-4.2,8.1-5.5,12.3-2.9l52.5,32.2
		c4.2,2.6,5.5,8.1,2.9,12.3C255.9,69.6,253,71.2,250,71.2z"/>
</g>
<g>
	<path d="M250,71.2c-3,0-5.9-1.5-7.6-4.3c-2.6-4.2-1.3-9.7,2.9-12.3l52.5-32.2c4.2-2.6,9.7-1.3,12.3,2.9c2.6,4.2,1.3,9.7-2.9,12.3
		l-52.5,32.2C253.2,70.7,251.6,71.2,250,71.2z"/>
</g>
<g>
	<path d="M250,77.6c96.2,0,174.2,78,174.2,174.2c0,80.5-54.7,148.3-128.9,168.2L280,455.9l-10.6-31c-1,0.1-16.7,43.4-16.7,43.4
		s-15.7-42.8-16.7-42.8l-10.6,30.5l-14.1-34.3c-77.5-17.6-135.3-87-135.3-169.8C75.8,155.6,153.8,77.6,250,77.6 M250,59.7
		c-105.9,0-192.1,86.2-192.1,192.1c0,43.8,15.1,86.6,42.6,120.6c25.1,31,59.4,53.6,97.5,64.3l10.7,26c2.8,6.7,9.3,11.1,16.5,11.1
		c0.2,0,0.3,0,0.5,0c3.2-0.1,6.2-1,8.9-2.6c0.4,1.1,0.8,2.2,1.2,3.2c2.6,7,9.3,11.7,16.8,11.7c0,0,0,0,0,0c7.5,0,14.2-4.7,16.8-11.8
		c0.4-1.1,0.8-2.1,1.2-3.2c2.6,1.6,5.6,2.5,8.7,2.6c0.2,0,0.4,0,0.7,0c7.2,0,13.6-4.3,16.5-10.9l12-28.1
		c79.1-25.2,133.7-99.2,133.7-183C442.1,145.9,355.9,59.7,250,59.7L250,59.7z"/>
</g>
<g>
	<path d="M250,279.2c-1.6,0-3.1-0.4-4.5-1.2c-2.7-1.6-4.4-4.5-4.4-7.7V162.9c0-4.9,4-8.9,8.9-8.9c4.9,0,8.9,4,8.9,8.9V255l61.1-34.2
		c4.3-2.4,9.8-0.9,12.2,3.4c2.4,4.3,0.9,9.8-3.4,12.2l-74.5,41.6C253,278.8,251.5,279.2,250,279.2z"/>
</g>
<g>
	<path d="M250,392.8c-77.9,0-141.2-63.3-141.2-141.2S172.1,110.4,250,110.4s141.2,63.3,141.2,141.2S327.9,392.8,250,392.8z
		 M250,122.3c-71.3,0-129.3,58-129.3,129.3c0,71.3,58,129.3,129.3,129.3s129.3-58,129.3-129.3C379.3,180.3,321.3,122.3,250,122.3z"
		/>
</g>
<g>
	<path d="M250,122.3c-3.3,0-6-2.7-6-6V16.3c0-3.3,2.7-6,6-6s6,2.7,6,6v100.1C256,119.7,253.3,122.3,250,122.3z"/>
</g>
</svg>
